<svg width="400px" height="857px"
 viewBox="0.00 0.00 155.00 332.00" xmlns="http://www.w3.org/2000/svg" xmlns:xlink="http://www.w3.org/1999/xlink">
<g id="graph0" class="graph" transform="scale(1.0 1.0) rotate(0.0) translate(4.0 328.0)">
<title>/home/roemer/Documents/repos/thesis&#45;rebalancing&#45;groups/app/build/resources/main/difficult_graph.txt</title>
<polygon fill="white" stroke="transparent" points="-4,4 -4,-328 151,-328 151,4 -4,4"/>
<!-- 0 -->
<g id="node1" class="node">
<title>0</title>
<ellipse fill="none" stroke="black" cx="120" cy="-306" rx="27" ry="18"/>
<text text-anchor="middle" x="120" y="-302.3" font-family="Times,serif" font-size="14.00">0</text>
</g>
<!-- 1 -->
<g id="node2" class="node">
<title>1</title>
<ellipse fill="none" stroke="black" cx="46" cy="-234" rx="27" ry="18"/>
<text text-anchor="middle" x="46" y="-230.3" font-family="Times,serif" font-size="14.00">1</text>
</g>
<!-- 0&#45;&gt;1 -->
<g id="edge1" class="edge">
<title>0&#45;&gt;1</title>
<path fill="none" stroke="black" d="M105.02,-290.83C94.49,-280.87 80.22,-267.37 68.34,-256.14"/>
<polygon fill="black" stroke="black" points="70.62,-253.47 60.95,-249.14 65.81,-258.56 70.62,-253.47"/>
<text text-anchor="middle" x="65.95" y="-252.94" font-family="Times,serif" font-size="14.00">0</text>
<text text-anchor="middle" x="95.52" y="-279.63" font-family="Times,serif" font-size="14.00">80</text>
</g>
<!-- 4 -->
<g id="node3" class="node">
<title>4</title>
<ellipse fill="none" stroke="black" cx="27" cy="-162" rx="27" ry="18"/>
<text text-anchor="middle" x="27" y="-158.3" font-family="Times,serif" font-size="14.00">4</text>
</g>
<!-- 1&#45;&gt;4 -->
<g id="edge2" class="edge">
<title>1&#45;&gt;4</title>
<path fill="none" stroke="black" d="M35.93,-217.12C32.84,-209.14 29.88,-199.26 27.77,-190.14"/>
<polygon fill="black" stroke="black" points="31.19,-189.4 25.78,-180.29 24.33,-190.79 31.19,-189.4"/>
<text text-anchor="middle" x="20.78" y="-184.09" font-family="Times,serif" font-size="14.00">0</text>
<text text-anchor="middle" x="26.43" y="-205.92" font-family="Times,serif" font-size="14.00">40</text>
</g>
<!-- 2 -->
<g id="node4" class="node">
<title>2</title>
<ellipse fill="none" stroke="black" cx="82" cy="-90" rx="27" ry="18"/>
<text text-anchor="middle" x="82" y="-86.3" font-family="Times,serif" font-size="14.00">2</text>
</g>
<!-- 1&#45;&gt;2 -->
<g id="edge3" class="edge">
<title>1&#45;&gt;2</title>
<path fill="none" stroke="black" d="M51.79,-216.42C55.3,-206.03 59.72,-192.33 63,-180 68.46,-159.52 73.41,-136.06 76.89,-118.37"/>
<polygon fill="black" stroke="black" points="80.4,-118.66 78.86,-108.18 73.53,-117.34 80.4,-118.66"/>
<text text-anchor="middle" x="73.86" y="-111.98" font-family="Times,serif" font-size="14.00">0</text>
<text text-anchor="middle" x="61.29" y="-205.22" font-family="Times,serif" font-size="14.00">16</text>
</g>
<!-- 4&#45;&gt;1 -->
<g id="edge8" class="edge">
<title>4&#45;&gt;1</title>
<path fill="none" stroke="black" d="M37.17,-179.14C40.19,-187.01 43.09,-196.68 45.18,-205.64"/>
<polygon fill="black" stroke="black" points="41.8,-206.59 47.22,-215.7 48.66,-205.2 41.8,-206.59"/>
<text text-anchor="middle" x="42.22" y="-204.5" font-family="Times,serif" font-size="14.00">0</text>
<text text-anchor="middle" x="51.17" y="-182.94" font-family="Times,serif" font-size="14.00">600</text>
</g>
<!-- 4&#45;&gt;2 -->
<g id="edge9" class="edge">
<title>4&#45;&gt;2</title>
<path fill="none" stroke="black" d="M38.93,-145.81C46.21,-136.55 55.66,-124.52 63.85,-114.09"/>
<polygon fill="black" stroke="black" points="66.66,-116.18 70.09,-106.16 61.16,-111.86 66.66,-116.18"/>
<text text-anchor="middle" x="65.09" y="-109.96" font-family="Times,serif" font-size="14.00">0</text>
<text text-anchor="middle" x="48.43" y="-134.61" font-family="Times,serif" font-size="14.00">20</text>
</g>
<!-- 2&#45;&gt;0 -->
<g id="edge5" class="edge">
<title>2&#45;&gt;0</title>
<path fill="none" stroke="black" d="M85.01,-107.94C91.58,-144.92 107.25,-233.2 115.2,-277.97"/>
<polygon fill="black" stroke="black" points="111.76,-278.62 116.95,-287.85 118.65,-277.39 111.76,-278.62"/>
<text text-anchor="middle" x="111.95" y="-276.65" font-family="Times,serif" font-size="14.00">0</text>
<text text-anchor="middle" x="94.51" y="-111.74" font-family="Times,serif" font-size="14.00">40</text>
</g>
<!-- 3 -->
<g id="node5" class="node">
<title>3</title>
<ellipse fill="none" stroke="black" cx="82" cy="-18" rx="27" ry="18"/>
<text text-anchor="middle" x="82" y="-14.3" font-family="Times,serif" font-size="14.00">3</text>
</g>
<!-- 2&#45;&gt;3 -->
<g id="edge4" class="edge">
<title>2&#45;&gt;3</title>
<path fill="none" stroke="black" d="M82,-71.7C82,-63.98 82,-54.71 82,-46.11"/>
<polygon fill="black" stroke="black" points="85.5,-46.1 82,-36.1 78.5,-46.1 85.5,-46.1"/>
<text text-anchor="middle" x="77" y="-39.9" font-family="Times,serif" font-size="14.00">0</text>
<text text-anchor="middle" x="72.5" y="-60.5" font-family="Times,serif" font-size="14.00">10</text>
</g>
<!-- 3&#45;&gt;0 -->
<g id="edge7" class="edge">
<title>3&#45;&gt;0</title>
<path fill="none" stroke="black" d="M95.65,-33.96C103.82,-43.94 113.47,-57.8 118,-72 140.83,-143.56 131.59,-233.9 124.8,-278.12"/>
<polygon fill="black" stroke="black" points="121.33,-277.65 123.18,-288.08 128.24,-278.77 121.33,-277.65"/>
<text text-anchor="middle" x="128.18" y="-276.88" font-family="Times,serif" font-size="14.00">0</text>
<text text-anchor="middle" x="105.15" y="-37.76" font-family="Times,serif" font-size="14.00">60</text>
</g>
<!-- 3&#45;&gt;4 -->
<g id="edge6" class="edge">
<title>3&#45;&gt;4</title>
<path fill="none" stroke="black" d="M69.25,-34.3C61.44,-44.41 51.85,-58.29 46,-72 37.54,-91.83 32.7,-115.8 30.02,-133.87"/>
<polygon fill="black" stroke="black" points="26.52,-133.63 28.66,-144.01 33.46,-134.57 26.52,-133.63"/>
<text text-anchor="middle" x="23.66" y="-132.81" font-family="Times,serif" font-size="14.00">0</text>
<text text-anchor="middle" x="64.25" y="-38.1" font-family="Times,serif" font-size="14.00">6</text>
</g>
</g>
</svg>
