<svg width="400px" height="671px"
 viewBox="0.00 0.00 155.00 260.00" xmlns="http://www.w3.org/2000/svg" xmlns:xlink="http://www.w3.org/1999/xlink">
<g id="graph0" class="graph" transform="scale(1.0 1.0) rotate(0.0) translate(4.0 256.0)">
<title>/home/roemer/Documents/repos/thesis&#45;rebalancing&#45;groups/app/build/resources/main/prot_graph.txt</title>
<polygon fill="white" stroke="transparent" points="-4,4 -4,-256 151,-256 151,4 -4,4"/>
<!-- 1 -->
<g id="node1" class="node">
<title>1</title>
<ellipse fill="none" stroke="black" cx="120" cy="-234" rx="27" ry="18"/>
<text text-anchor="middle" x="120" y="-230.3" font-family="Times,serif" font-size="14.00">1</text>
</g>
<!-- 0 -->
<g id="node2" class="node">
<title>0</title>
<ellipse fill="none" stroke="black" cx="56" cy="-162" rx="27" ry="18"/>
<text text-anchor="middle" x="56" y="-158.3" font-family="Times,serif" font-size="14.00">0</text>
</g>
<!-- 1&#45;&gt;0 -->
<g id="edge1" class="edge">
<title>1&#45;&gt;0</title>
<path fill="none" stroke="black" d="M106.43,-218.15C97.69,-208.6 86.17,-195.99 76.34,-185.25"/>
<polygon fill="black" stroke="black" points="78.88,-182.84 69.55,-177.82 73.72,-187.57 78.88,-182.84"/>
<text text-anchor="middle" x="64.55" y="-181.62" font-family="Times,serif" font-size="14.00">5</text>
<text text-anchor="middle" x="101.43" y="-206.95" font-family="Times,serif" font-size="14.00">9</text>
</g>
<!-- 3 -->
<g id="node3" class="node">
<title>3</title>
<ellipse fill="none" stroke="black" cx="27" cy="-90" rx="27" ry="18"/>
<text text-anchor="middle" x="27" y="-86.3" font-family="Times,serif" font-size="14.00">3</text>
</g>
<!-- 0&#45;&gt;3 -->
<g id="edge2" class="edge">
<title>0&#45;&gt;3</title>
<path fill="none" stroke="black" d="M49.13,-144.41C45.73,-136.22 41.56,-126.14 37.75,-116.95"/>
<polygon fill="black" stroke="black" points="40.88,-115.37 33.82,-107.47 34.42,-118.05 40.88,-115.37"/>
<text text-anchor="middle" x="28.82" y="-111.27" font-family="Times,serif" font-size="14.00">5</text>
<text text-anchor="middle" x="44.13" y="-133.21" font-family="Times,serif" font-size="14.00">9</text>
</g>
<!-- 2 -->
<g id="node4" class="node">
<title>2</title>
<ellipse fill="none" stroke="black" cx="82" cy="-18" rx="27" ry="18"/>
<text text-anchor="middle" x="82" y="-14.3" font-family="Times,serif" font-size="14.00">2</text>
</g>
<!-- 3&#45;&gt;2 -->
<g id="edge5" class="edge">
<title>3&#45;&gt;2</title>
<path fill="none" stroke="black" d="M38.93,-73.81C46.21,-64.55 55.66,-52.52 63.85,-42.09"/>
<polygon fill="black" stroke="black" points="66.66,-44.18 70.09,-34.16 61.16,-39.86 66.66,-44.18"/>
<text text-anchor="middle" x="65.09" y="-37.96" font-family="Times,serif" font-size="14.00">5</text>
<text text-anchor="middle" x="43.93" y="-62.61" font-family="Times,serif" font-size="14.00">9</text>
</g>
<!-- 2&#45;&gt;1 -->
<g id="edge3" class="edge">
<title>2&#45;&gt;1</title>
<path fill="none" stroke="black" d="M85.01,-35.94C91.58,-72.92 107.25,-161.2 115.2,-205.97"/>
<polygon fill="black" stroke="black" points="111.76,-206.62 116.95,-215.85 118.65,-205.39 111.76,-206.62"/>
<text text-anchor="middle" x="111.95" y="-204.65" font-family="Times,serif" font-size="14.00">5</text>
<text text-anchor="middle" x="80.01" y="-39.74" font-family="Times,serif" font-size="14.00">9</text>
</g>
<!-- 2&#45;&gt;0 -->
<g id="edge4" class="edge">
<title>2&#45;&gt;0</title>
<path fill="none" stroke="black" d="M78.85,-36.19C74.42,-60.42 66.27,-104.89 61,-133.68"/>
<polygon fill="black" stroke="black" points="57.49,-133.4 59.14,-143.87 64.38,-134.67 57.49,-133.4"/>
<text text-anchor="middle" x="54.14" y="-132.67" font-family="Times,serif" font-size="14.00">5</text>
<text text-anchor="middle" x="73.85" y="-39.99" font-family="Times,serif" font-size="14.00">9</text>
</g>
<!-- 4 -->
<g id="node5" class="node">
<title>4</title>
<ellipse fill="none" stroke="black" cx="48" cy="-234" rx="27" ry="18"/>
<text text-anchor="middle" x="48" y="-230.3" font-family="Times,serif" font-size="14.00">4</text>
</g>
<!-- 4&#45;&gt;0 -->
<g id="edge6" class="edge">
<title>4&#45;&gt;0</title>
<path fill="none" stroke="black" d="M49.98,-215.7C50.86,-207.98 51.92,-198.71 52.9,-190.11"/>
<polygon fill="black" stroke="black" points="56.39,-190.44 54.05,-180.1 49.43,-189.64 56.39,-190.44"/>
<text text-anchor="middle" x="49.05" y="-183.9" font-family="Times,serif" font-size="14.00">5</text>
<text text-anchor="middle" x="44.98" y="-204.5" font-family="Times,serif" font-size="14.00">9</text>
</g>
</g>
</svg>
